<?xml version="1.0" standalone="no"?>
<!DOCTYPE svg PUBLIC "-//W3C//DTD SVG 20010904//EN"
 "http://www.w3.org/TR/2001/REC-SVG-20010904/DTD/svg10.dtd">
<svg version="1.0" xmlns="http://www.w3.org/2000/svg"
 width="1040.000000pt" height="1040.000000pt" viewBox="0 0 1040.000000 1040.000000"
 preserveAspectRatio="xMidYMid meet">
<metadata>
Created by potrace 1.11, written by Peter Selinger 2001-2013
</metadata>
<g transform="translate(0.000000,1040.000000) scale(0.100000,-0.100000)"
fill="#000000" stroke="none">
<path d="M2559 9628 c-23 -40 -62 -106 -86 -146 -24 -40 -43 -75 -43 -78 0 -3
-9 -17 -20 -31 -11 -14 -17 -29 -14 -34 3 -5 1 -9 -4 -9 -4 0 -17 -17 -29 -37
-41 -76 -76 -138 -83 -148 -4 -5 -17 -26 -27 -45 -11 -19 -44 -78 -73 -130
-29 -52 -58 -102 -65 -110 -7 -8 -25 -40 -41 -70 -16 -30 -35 -61 -41 -68 -7
-7 -13 -17 -13 -21 0 -6 -127 -232 -170 -301 -43 -71 -110 -192 -110 -200 0
-5 -3 -10 -7 -10 -5 0 -13 -10 -19 -23 -26 -54 -139 -243 -148 -249 -6 -4 -7
-8 -3 -8 5 0 -1 -13 -12 -29 -12 -16 -21 -32 -21 -35 0 -3 -15 -29 -33 -58
-19 -29 -51 -84 -72 -123 -21 -38 -48 -86 -60 -105 -12 -19 -35 -57 -50 -85
-16 -27 -39 -68 -51 -90 -13 -22 -31 -53 -40 -70 -9 -16 -41 -72 -71 -122 -30
-51 -53 -95 -53 -99 1 -4 -2 -10 -7 -13 -11 -8 -83 -130 -83 -141 0 -5 -6 -15
-13 -22 -7 -7 -35 -53 -63 -103 -73 -131 -78 -139 -89 -147 -5 -4 -6 -8 -1 -8
5 0 3 -7 -4 -15 -13 -16 -19 -26 -89 -151 -25 -43 -48 -80 -53 -82 -4 -2 -8
-8 -8 -13 0 -6 -28 -58 -63 -117 -35 -59 -66 -114 -70 -122 -4 -8 -21 -37 -37
-65 -17 -27 -36 -61 -43 -75 -6 -14 -14 -27 -18 -30 -3 -3 -21 -33 -40 -67
-51 -94 -190 -334 -212 -365 -10 -16 -15 -28 -10 -28 4 0 3 -4 -3 -8 -6 -4
-26 -34 -45 -67 -19 -33 -38 -68 -44 -77 -5 -9 -17 -29 -26 -45 -8 -15 -30
-53 -47 -83 -29 -51 -30 -57 -17 -80 8 -14 20 -36 27 -50 7 -14 15 -27 18 -30
3 -3 16 -25 29 -50 13 -25 33 -56 43 -69 10 -13 18 -28 18 -33 0 -4 11 -25 23
-46 33 -51 175 -298 201 -347 12 -22 27 -46 34 -53 6 -7 12 -20 12 -28 0 -8 5
-14 10 -14 6 0 10 -4 10 -9 0 -4 44 -85 98 -178 55 -94 102 -177 106 -184 3
-8 14 -27 25 -44 19 -32 49 -83 89 -155 14 -25 39 -67 57 -95 17 -27 37 -65
44 -83 7 -17 17 -32 22 -32 5 0 9 -4 9 -10 0 -5 27 -55 60 -111 33 -55 60
-102 60 -104 0 -2 27 -49 60 -104 33 -56 60 -106 60 -111 0 -6 5 -10 10 -10 6
0 10 -4 10 -9 0 -5 45 -87 100 -181 55 -95 100 -174 100 -176 0 -3 11 -21 23
-42 21 -33 145 -245 200 -342 11 -19 78 -136 150 -260 71 -124 139 -241 150
-260 16 -29 79 -137 122 -212 6 -9 41 -71 78 -137 38 -66 73 -123 78 -126 5
-4 7 -11 4 -16 -4 -5 -1 -9 4 -9 6 0 11 -7 11 -15 0 -8 3 -15 8 -15 4 0 12
-10 17 -23 15 -31 59 -111 65 -117 3 -3 14 -23 25 -45 11 -22 22 -42 26 -45 3
-3 19 -30 35 -60 16 -30 31 -57 35 -60 3 -3 8 -12 12 -20 3 -8 20 -37 37 -65
16 -27 34 -59 40 -70 5 -11 21 -38 34 -60 14 -22 37 -62 52 -90 14 -27 31 -56
36 -62 8 -10 543 -13 2612 -13 l2601 0 11 23 c6 12 62 112 126 222 173 300
189 328 206 355 9 14 15 28 14 33 -1 4 2 7 8 7 5 0 10 5 10 11 0 6 19 43 43
82 24 40 47 79 50 87 4 8 18 33 32 55 14 22 28 47 32 55 4 8 18 33 31 55 14
22 39 65 55 95 17 30 33 57 36 60 4 3 12 16 18 30 7 14 26 48 42 75 16 28 36
61 44 75 42 78 185 324 218 377 22 34 39 64 39 67 0 2 39 71 86 153 48 81 98
168 112 192 14 25 38 67 53 93 16 27 29 53 29 58 0 6 5 10 10 10 6 0 10 4 10
9 0 6 29 60 65 122 36 61 65 116 65 120 0 5 5 9 10 9 6 0 10 4 10 9 0 4 47 90
105 190 58 99 105 185 105 191 0 5 4 10 9 10 5 0 11 8 14 17 4 10 18 38 33 63
34 57 61 103 93 160 13 25 28 47 32 50 3 3 9 15 13 27 4 13 13 29 20 35 7 7
19 27 27 43 9 17 69 122 134 235 65 113 125 218 134 235 9 16 18 32 21 35 5 5
11 15 55 94 13 23 46 82 75 131 29 50 64 110 78 135 14 25 33 57 43 72 11 14
19 33 19 42 0 9 4 16 8 16 4 0 21 26 37 58 17 31 32 59 35 62 3 3 13 18 23 33
18 27 17 29 -10 80 -15 29 -30 54 -33 57 -5 5 -12 17 -58 99 -14 25 -34 60
-44 76 -10 17 -21 37 -25 45 -3 8 -9 17 -12 20 -7 6 -49 82 -66 117 -5 13 -13
23 -17 23 -5 0 -8 5 -8 10 0 6 -18 41 -40 78 -22 37 -40 71 -39 76 0 5 -3 12
-8 15 -9 6 -33 44 -71 111 -10 19 -31 55 -46 80 -15 25 -29 53 -33 63 -3 9 -9
17 -14 17 -5 0 -9 6 -9 13 0 7 -15 36 -34 65 -19 28 -33 52 -31 52 3 0 -88
158 -102 175 -4 6 -18 30 -31 55 -24 48 -44 82 -52 90 -6 6 -50 86 -65 117 -5
13 -13 23 -17 23 -5 0 -8 4 -8 10 0 5 -38 75 -85 155 -47 79 -85 148 -85 152
0 3 -6 14 -14 22 -7 9 -27 41 -44 72 -16 32 -37 68 -45 80 -29 46 -78 134 -84
152 -3 9 -9 17 -14 17 -5 0 -9 4 -9 10 0 9 -73 137 -166 292 -19 31 -34 61
-34 67 0 7 -6 14 -13 17 -8 3 -14 10 -14 17 0 7 -12 31 -26 54 -15 24 -27 47
-27 53 0 5 -4 10 -10 10 -5 0 -10 4 -10 10 0 8 -23 49 -100 180 -5 8 -37 65
-72 125 -34 61 -64 112 -67 115 -6 5 -23 35 -65 115 -12 22 -24 42 -27 45 -3
3 -19 30 -35 60 -16 30 -31 57 -34 60 -8 8 -28 42 -47 80 -9 19 -32 58 -50 87
-18 29 -33 55 -33 58 0 3 -8 18 -19 33 -10 15 -40 65 -66 111 -103 184 -340
594 -382 664 l-34 57 -2599 0 -2599 0 -42 -72z m4931 -639 c0 -5 5 -9 10 -9 6
0 10 -4 10 -9 0 -9 49 -97 89 -161 8 -14 16 -27 16 -30 0 -3 8 -16 17 -30 35
-55 158 -273 158 -281 0 -5 5 -9 10 -9 6 0 10 -4 10 -9 0 -5 20 -44 45 -85 25
-42 45 -81 45 -86 0 -6 4 -10 9 -10 5 0 13 -10 17 -22 3 -12 24 -50 45 -85 22
-35 39 -65 39 -68 0 -3 18 -34 40 -70 22 -36 40 -70 40 -75 0 -6 5 -10 10 -10
6 0 10 -4 10 -9 0 -9 79 -152 89 -161 3 -3 21 -34 40 -70 18 -36 39 -72 45
-80 7 -8 25 -40 41 -70 15 -30 32 -57 36 -60 4 -3 13 -17 18 -30 6 -14 19 -38
29 -55 10 -16 33 -57 51 -90 18 -32 41 -71 52 -86 10 -15 19 -30 19 -33 0 -4
12 -25 27 -49 15 -23 28 -44 28 -47 0 -3 8 -16 16 -30 9 -14 62 -106 119 -205
56 -99 112 -196 124 -215 12 -19 28 -48 36 -65 8 -16 17 -32 20 -35 3 -3 33
-52 65 -110 33 -57 72 -125 86 -150 14 -25 39 -67 54 -95 15 -27 35 -61 45
-75 9 -14 20 -32 23 -40 4 -8 11 -22 17 -30 16 -24 100 -171 100 -175 0 -3 62
-110 90 -155 8 -13 54 -93 131 -229 15 -25 35 -60 45 -78 70 -118 114 -197
114 -207 0 -8 -380 -11 -1435 -11 -1422 0 -1434 0 -1449 20 -9 11 -16 23 -16
28 0 4 -18 36 -40 71 -22 35 -40 66 -40 70 0 4 -14 27 -30 51 -17 24 -30 46
-30 48 0 3 -27 51 -60 107 -33 56 -60 106 -60 111 0 5 -5 9 -11 9 -5 0 -8 4
-4 9 3 5 1 12 -4 15 -5 3 -35 52 -67 108 -31 57 -64 111 -72 121 -8 9 -12 17
-8 17 3 0 -9 24 -29 52 -19 29 -35 58 -35 65 0 7 -5 13 -11 13 -5 0 -7 5 -4
10 3 6 2 10 -3 10 -5 0 -12 8 -15 18 -8 23 -40 76 -49 80 -5 2 -8 8 -8 12 0 5
-29 59 -65 121 -36 61 -79 135 -95 164 l-29 53 20 38 c11 22 32 59 48 84 15
25 44 77 65 115 21 39 42 75 46 80 4 6 34 55 66 110 91 159 245 427 266 464
11 19 59 102 107 185 48 83 99 171 112 196 13 25 27 47 30 50 3 3 19 30 36 60
16 30 51 90 76 133 26 43 47 83 47 88 0 5 4 9 8 9 4 0 13 12 20 28 16 36 54
106 68 123 6 8 25 39 41 69 31 57 133 233 164 285 11 17 22 37 26 45 4 8 26
48 50 88 24 40 43 77 43 82 0 6 5 10 10 10 6 0 10 4 10 9 0 5 19 41 41 81 l42
71 23 -41 c13 -23 24 -46 24 -51z m-4503 44 c32 -60 60 -109 87 -152 15 -22
26 -47 26 -56 0 -8 5 -15 10 -15 6 0 15 -11 19 -23 5 -13 28 -54 50 -91 23
-36 41 -70 41 -75 0 -5 6 -16 13 -23 7 -7 28 -40 46 -73 48 -84 55 -96 181
-315 62 -107 124 -215 138 -240 13 -25 44 -78 68 -117 24 -40 44 -77 44 -83 0
-5 5 -10 10 -10 6 0 10 -5 10 -11 0 -6 31 -63 69 -127 38 -64 78 -134 90 -154
11 -21 31 -55 42 -75 12 -21 30 -50 40 -64 10 -14 16 -28 13 -31 -2 -3 2 -11
11 -18 8 -7 15 -19 15 -26 0 -8 5 -14 10 -14 6 0 10 -4 10 -9 0 -5 23 -48 50
-96 28 -48 50 -91 50 -96 0 -5 4 -9 9 -9 5 0 11 -8 14 -17 6 -18 48 -94 57
-103 3 -3 10 -14 16 -25 38 -69 66 -118 88 -154 14 -22 26 -43 26 -46 0 -2 14
-27 30 -54 l31 -49 -27 -49 c-22 -40 -84 -146 -124 -213 -5 -8 -46 -80 -92
-160 -46 -79 -87 -152 -93 -161 -5 -9 -25 -43 -43 -75 -18 -32 -46 -81 -62
-109 -17 -27 -42 -72 -56 -100 -15 -27 -30 -51 -35 -53 -5 -2 -9 -7 -9 -12 0
-4 -54 -101 -120 -215 -66 -114 -120 -210 -120 -212 0 -28 -50 -28 -1457 -27
-788 1 -1435 2 -1438 3 -5 1 35 82 44 91 6 5 22 33 58 100 10 19 24 40 30 48
7 7 16 24 19 38 3 13 10 24 15 24 5 0 9 4 9 10 0 5 18 39 40 75 22 36 40 70
40 75 0 6 4 10 8 10 5 0 14 16 22 35 8 19 17 35 22 35 4 0 8 4 8 9 0 4 30 61
68 125 37 64 75 131 85 149 11 18 28 47 39 65 11 17 17 32 13 32 -3 0 3 10 15
22 11 12 20 25 20 30 0 4 16 32 35 62 19 30 35 58 35 61 0 3 16 31 35 61 19
30 35 56 35 58 0 2 23 43 52 92 28 49 57 100 65 114 8 14 22 39 32 55 10 17
45 77 78 135 34 58 70 121 81 140 11 19 33 58 47 85 15 28 33 57 41 66 8 8 14
21 14 27 0 6 6 17 13 24 6 7 21 31 32 53 11 22 22 42 25 45 3 3 32 52 65 110
33 58 62 107 65 110 3 3 11 16 17 30 7 14 25 48 41 75 16 28 35 61 43 75 8 14
16 27 19 30 3 3 12 19 21 35 9 17 42 75 75 130 32 55 59 102 59 105 0 3 8 16
17 30 9 14 69 117 134 230 64 113 137 238 161 278 24 41 43 78 43 83 0 5 5 9
11 9 5 0 7 5 4 10 -3 6 -1 10 4 10 6 0 11 5 11 10 0 6 16 37 36 68 21 31 37
59 37 62 0 3 6 14 13 25 36 57 144 249 144 256 0 5 4 9 9 9 5 0 11 9 14 20 8
30 21 24 44 -17z m2733 -3036 c16 -26 30 -54 30 -62 0 -7 3 -15 8 -17 6 -3 72
-105 72 -113 0 -2 27 -49 60 -105 33 -56 60 -106 60 -111 0 -5 5 -9 10 -9 6 0
10 -4 10 -10 0 -5 14 -33 31 -62 18 -29 39 -66 49 -83 9 -16 42 -74 73 -128
32 -54 57 -100 57 -103 0 -10 -84 -149 -95 -156 -5 -4 -6 -8 -1 -8 5 0 4 -6
-2 -12 -20 -25 -182 -307 -182 -318 0 -5 -4 -10 -9 -10 -5 0 -12 -9 -16 -20
-3 -10 -31 -60 -61 -110 -30 -50 -54 -93 -54 -95 0 -6 -64 -109 -72 -115 -8
-6 -975 -6 -980 0 -15 19 -78 133 -78 141 0 5 -4 9 -10 9 -5 0 -10 4 -10 9 0
5 -23 49 -51 98 -29 48 -65 113 -82 143 -16 30 -36 62 -43 71 -8 8 -14 19 -14
22 0 4 -27 52 -59 107 -33 55 -57 100 -53 100 4 0 2 4 -4 8 -6 4 -28 36 -48
72 -36 61 -37 66 -23 90 8 14 23 41 34 60 10 19 20 37 23 40 10 10 41 65 47
83 3 9 10 17 15 17 5 0 7 4 3 9 -3 5 -1 12 4 15 5 4 30 43 56 89 25 45 50 89
55 97 8 12 124 213 216 375 l23 40 490 0 490 0 31 -48z m284 -2197 c8 -8 40
-62 72 -120 33 -58 62 -106 66 -108 5 -2 8 -8 8 -13 0 -4 22 -46 49 -91 56
-96 82 -141 124 -218 16 -30 35 -62 41 -70 6 -8 16 -24 22 -35 30 -56 50 -91
54 -95 6 -6 25 -39 53 -93 11 -23 24 -44 27 -47 4 -3 26 -41 50 -85 24 -44 51
-92 61 -107 11 -14 19 -31 19 -36 0 -6 3 -12 8 -14 4 -1 16 -21 28 -43 12 -22
53 -95 92 -162 40 -68 72 -127 72 -133 0 -5 4 -10 9 -10 5 0 11 -8 15 -17 3
-10 19 -40 36 -68 17 -27 35 -59 40 -70 6 -11 14 -27 20 -35 10 -14 121 -206
162 -280 11 -19 35 -60 53 -90 18 -30 44 -75 57 -100 14 -25 48 -85 77 -133
28 -49 51 -93 51 -98 0 -5 3 -9 8 -9 4 0 16 -20 27 -45 11 -25 23 -45 28 -45
4 0 7 -4 7 -8 0 -5 -1008 -9 -2239 -10 l-2239 -3 5 21 c3 11 9 20 13 20 5 0
12 10 16 23 4 12 9 24 13 27 7 6 38 61 60 108 8 17 19 32 23 32 4 0 8 5 8 10
0 6 11 27 23 48 13 20 35 57 49 82 14 25 51 90 83 145 32 55 69 120 83 145 14
25 41 72 61 105 20 33 43 74 51 90 8 17 18 32 21 35 3 3 19 30 36 60 16 30 56
100 88 155 32 55 66 116 77 135 21 40 41 73 48 80 3 3 12 19 21 35 34 66 64
120 69 125 8 8 40 62 58 100 9 19 21 40 25 45 21 27 77 129 77 140 0 7 7 15
15 19 8 3 15 10 15 15 0 9 48 96 86 158 8 13 14 26 13 29 0 4 3 10 8 13 5 3
16 20 25 36 8 17 53 96 100 177 47 80 88 152 92 160 3 7 15 27 26 43 11 17 24
40 29 52 6 12 17 25 25 30 8 4 368 8 800 8 676 -1 788 -3 800 -15z"/>
</g>
</svg>
