<?xml version="1.0" standalone="no"?>
<!DOCTYPE svg PUBLIC "-//W3C//DTD SVG 20010904//EN"
 "http://www.w3.org/TR/2001/REC-SVG-20010904/DTD/svg10.dtd">
<svg version="1.0" xmlns="http://www.w3.org/2000/svg"
 width="622.000000pt" height="622.000000pt" viewBox="0 0 622.000000 622.000000"
 preserveAspectRatio="xMidYMid meet">
<metadata>
Created by potrace 1.11, written by Peter Selinger 2001-2013
</metadata>
<g transform="translate(0.000000,622.000000) scale(0.100000,-0.100000)"
fill="#000000" stroke="none">
<path d="M1532 5753 c-16 -27 -67 -113 -112 -193 -46 -80 -103 -178 -127 -218
-24 -40 -43 -74 -43 -77 0 -2 -35 -64 -78 -137 -92 -156 -127 -217 -597 -1033
-197 -341 -405 -700 -461 -799 -57 -98 -104 -183 -104 -188 0 -6 31 -63 68
-127 107 -182 222 -380 250 -430 14 -25 109 -191 211 -367 102 -177 373 -646
601 -1042 l415 -721 1555 0 1555 -1 364 633 c201 347 395 684 431 747 37 63
104 180 150 260 46 80 104 181 130 225 26 44 84 145 130 225 46 80 119 205
162 278 43 73 78 135 78 137 0 2 22 41 50 87 27 46 50 89 50 95 0 7 -118 217
-261 465 -144 249 -312 541 -374 648 -62 107 -172 298 -244 423 -73 126 -141
245 -153 265 -11 20 -52 91 -91 157 -38 66 -96 165 -127 220 -32 55 -89 154
-127 220 -39 66 -92 159 -119 207 l-49 88 -1551 0 -1552 0 -30 -47z m339 -495
c51 -90 114 -199 139 -243 26 -44 84 -145 130 -225 46 -80 113 -197 150 -260
225 -388 340 -589 340 -595 0 -3 -50 -92 -111 -198 -61 -106 -167 -290 -236
-409 l-125 -218 -859 0 c-472 0 -859 3 -859 6 0 5 171 305 454 794 40 69 110
190 156 270 46 80 105 181 131 225 26 44 56 96 67 115 22 40 197 344 340 590
52 91 114 198 136 237 23 40 44 73 47 73 4 0 48 -73 100 -162z m2624 95 c21
-38 97 -169 168 -293 158 -273 234 -406 407 -705 233 -404 274 -475 432 -750
86 -148 183 -317 217 -375 34 -58 61 -108 61 -112 0 -5 -387 -8 -860 -8 l-859
0 -17 33 c-9 17 -40 73 -69 122 -106 181 -385 667 -385 670 0 3 26 48 57 102
51 88 179 310 388 673 40 69 130 226 202 350 182 317 207 360 213 360 3 0 23
-30 45 -67z m-998 -1898 c50 -88 115 -199 142 -246 28 -47 51 -92 51 -100 0
-8 -22 -51 -48 -95 -26 -45 -90 -157 -142 -248 l-95 -166 -294 3 -295 2 -49
85 c-187 322 -237 411 -237 421 0 5 32 65 71 132 39 67 98 169 132 227 33 58
66 115 74 128 l14 22 292 -2 292 -3 92 -160z m243 -1435 c428 -743 674 -1168
692 -1197 l20 -33 -1337 0 c-1206 0 -1337 2 -1331 16 3 8 195 343 427 745
l421 729 480 -2 481 -3 147 -255z"/>
</g>
</svg>
