<?xml version="1.0" standalone="no"?>
<!DOCTYPE svg PUBLIC "-//W3C//DTD SVG 20010904//EN"
 "http://www.w3.org/TR/2001/REC-SVG-20010904/DTD/svg10.dtd">
<svg version="1.0" xmlns="http://www.w3.org/2000/svg"
 width="416.000000pt" height="416.000000pt" viewBox="0 0 416.000000 416.000000"
 preserveAspectRatio="xMidYMid meet">
<metadata>
Created by potrace 1.11, written by Peter Selinger 2001-2013
</metadata>
<g transform="translate(0.000000,416.000000) scale(0.100000,-0.100000)"
fill="#000000" stroke="none">
<path d="M2217 3906 l-489 -241 338 -333 c186 -183 341 -329 345 -325 4 5 21
64 39 133 17 69 40 154 50 190 10 36 39 146 65 245 26 99 62 238 82 309 19 70
36 133 37 140 2 6 8 30 15 54 7 24 11 49 9 56 -2 8 -178 -73 -491 -228z"/>
<path d="M2760 4146 c0 -4 -18 -78 -41 -165 -22 -86 -42 -163 -44 -171 -1 -8
-33 -132 -70 -275 -36 -143 -68 -268 -70 -278 -2 -10 -7 -27 -10 -37 -3 -10
-7 -27 -9 -37 -5 -24 -96 -384 -101 -400 -2 -7 12 -2 33 11 20 13 159 95 307
181 149 87 282 166 296 176 19 13 38 49 67 126 23 60 64 166 91 238 l51 130
-114 115 c-62 63 -175 178 -250 255 -74 77 -136 136 -136 131z"/>
<path d="M1678 3585 c-12 -23 -87 -142 -375 -597 -51 -81 -98 -158 -103 -170
-5 -13 -44 -196 -85 -408 -42 -212 -78 -394 -81 -404 -17 -84 -67 -335 -70
-351 -2 -12 -12 -63 -23 -115 -11 -52 -18 -96 -17 -98 3 -2 238 233 407 408
45 47 242 249 438 449 196 201 389 399 429 440 41 42 98 101 128 131 l54 56
-138 141 c-319 329 -533 543 -542 543 -5 0 -15 -11 -22 -25z"/>
<path d="M1459 1949 c-112 -117 -217 -225 -234 -242 -16 -16 -30 -35 -31 -41
-1 -10 -10 -187 -19 -396 -2 -47 -7 -143 -10 -215 -8 -162 -12 -262 -20 -435
-3 -74 -8 -175 -10 -225 -13 -277 -16 -359 -11 -355 2 3 7 17 10 30 3 14 26
106 52 205 25 99 47 187 49 196 2 10 19 77 39 150 19 74 65 251 101 394 37
143 87 339 111 435 112 435 182 710 180 710 -2 0 -95 -95 -207 -211z"/>
</g>
</svg>
