<svg xmlns="http://www.w3.org/2000/svg" xmlns:xlink="http://www.w3.org/1999/xlink" version="1.1" x="0px" y="0px" viewBox="0 0 200 200" style="enable-background:new 0 0 200 200;" xml:space="preserve"><style type="text/css">
	.st0{fill:none;stroke:#000000;stroke-width:5;stroke-linecap:round;stroke-linejoin:round;stroke-miterlimit:10;}
	.st1{fill:none;stroke:#000000;stroke-width:5;stroke-linejoin:round;stroke-miterlimit:10;}
	.st2{fill:none;stroke:#000000;stroke-width:5;stroke-miterlimit:10;}
	.st3{fill:none;stroke:#000000;stroke-width:5;stroke-linecap:square;stroke-miterlimit:10;}
	.st4{fill:none;stroke:#000000;stroke-width:4;stroke-miterlimit:10;}
	.st5{fill:none;stroke:#000000;stroke-width:5;stroke-linecap:round;stroke-miterlimit:10;}
	.st6{fill:none;stroke:#000000;stroke-width:5;stroke-linejoin:bevel;stroke-miterlimit:10;}
</style><path class="st0" d="M-942.3-378.7c0,15.3,8.3,28.7,20.7,35.9c6.1,3.5,13.1,5.5,20.7,5.5c22.8,0,41.4-18.5,41.4-41.4  s-18.5-41.4-41.4-41.4c-7.5,0-14.6,2-20.7,5.5C-934-407.4-942.3-394-942.3-378.7z"/><polygon class="st0" points="-921.2,-413.8 -921.2,-343.5 -860.4,-378.7 "/><circle class="st1" cx="-757.6" cy="-374.7" r="35.8"/><path class="st2" d="M-465.7-357.9c0,17.2-14,31.2-31.2,31.2s-31.2-14-31.2-31.2c0-11.1,5.7-20.8,14.4-26.3  c4.8-3.1,10.6-4.9,16.8-4.9s11.9,1.8,16.8,4.9C-471.4-378.7-465.7-369-465.7-357.9z"/><line class="st1" x1="-757.6" y1="-410.5" x2="-729.7" y2="-410.5"/><line class="st1" x1="-821.2" y1="-374.7" x2="-765.4" y2="-374.7"/><polygon points="-719.2,-410.5 -729.7,-416.6 -729.7,-404.5 "/><polygon points="-757.8,-374.3 -768.3,-380.4 -768.3,-368.3 "/><polygon class="st2" points="-583.8,-347.8 -603.2,-345.2 -622.5,-342.6 -641.9,-340 -661.3,-337.4 -661.3,-350.8 -661.3,-364.2   -661.3,-377.6 -661.3,-391 -641.9,-388.4 -622.5,-385.8 -603.2,-383.2 -583.8,-380.6 -583.8,-372.4 -583.8,-364.2 -583.8,-356 "/><polyline class="st3" points="-603.2,-384 -603.2,-407.2 -583.8,-407.2 "/><polygon class="st4" points="-573.5,-407.2 -582,-412 -582,-402.4 "/><polyline class="st2" points="-671.5,-407.2 -641.9,-407.2 -641.9,-389.2 "/><path class="st2" d="M-480.1-403.5v19.2c-4.8-3.1-10.6-4.9-16.8-4.9s-11.9,1.8-16.8,4.9v-19.2H-480.1z"/><polyline class="st3" points="-496.9,-403.5 -496.9,-418.6 -478.2,-418.6 "/><polygon class="st4" points="-469.3,-418.6 -476.7,-422.8 -476.7,-414.3 "/><line class="st3" x1="-543.3" y1="-393.1" x2="-530.8" y2="-393.1"/><polygon class="st4" points="-521.8,-393.1 -529.2,-397.3 -529.2,-388.9 "/><polyline class="st3" points="-324.3,-365.1 -333.5,-365.1 -344.7,-383.5 -356,-365.1 -367.2,-383.5 -378.4,-365.1 -389.6,-383.5   -400.8,-365.1 -412,-383.5 -421.3,-383.5 -421.3,-403.7 -324.3,-403.7 -324.3,-355.1 -421.3,-355.1 -421.3,-383.5 "/><polyline class="st3" points="-421.3,-355.1 -421.3,-345 -324.3,-345 -324.3,-355.1 "/><path class="st3" d="M-197.2-375.6c0,5.3-1.1,10.4-3,15.1c-2,4.6-4.8,8.8-8.3,12.3s-7.7,6.3-12.3,8.3s-9.7,3-15.1,3  s-10.5-1.1-15.1-3s-8.8-4.8-12.3-8.3s-6.4-7.7-8.3-12.3c-2-4.6-3-9.7-3-15.1c0-5.3,1.1-10.4,3-15.1c2-4.6,4.8-8.8,8.3-12.3  s7.7-6.3,12.3-8.3s9.7-3,15.1-3s10.5,1.1,15.1,3c4.6,2,8.8,4.8,12.3,8.3s6.4,7.7,8.3,12.3C-198.2-386.1-197.2-381-197.2-375.6z"/><line class="st2" x1="-251.1" y1="-411.3" x2="-200.2" y2="-390.7"/><line class="st2" x1="-251.1" y1="-339.9" x2="-200.2" y2="-360.5"/><g><path class="st5" d="M-236-375.6L-236-375.6c2.1-8-2.6-16.2-10.6-18.3l0,0l0,0C-248.7-385.9-243.9-377.8-236-375.6L-236-375.6z"/><path class="st5" d="M-235.9-375.6L-235.9-375.6c5.8,5.8,15.3,5.8,21.2,0l0,0l0,0C-220.6-381.4-230.1-381.4-235.9-375.6   L-235.9-375.6z"/><path class="st5" d="M-235.9-375.6L-235.9-375.6c2.1,8-2.6,16.2-10.6,18.3l0,0l0,0C-248.7-365.3-243.9-373.5-235.9-375.6   L-235.9-375.6z"/></g><line class="st3" x1="-274.8" y1="-375.6" x2="-284.5" y2="-375.6"/><line class="st3" x1="-197.2" y1="-375.6" x2="-187.5" y2="-375.6"/><path class="st3" d="M-103.8-410.9c-11,0-20.9,4.4-28.1,11.6c-7.2,7.2-11.6,17.1-11.6,28.1s4.4,20.9,11.6,28.1  c7.2,7.2,17.1,11.6,28.1,11.6s20.9-4.4,28.1-11.6s11.6-17.1,11.6-28.1v-11.5h17.6v-28.2H-103.8"/><path class="st3" d="M-86.8-371.2c0,4.7-1.9,8.9-5,12s-7.3,5-12,5s-8.9-1.9-12-5s-5-7.3-5-12s1.9-8.9,5-12s7.3-5,12-5s8.9,1.9,12,5  C-88.7-380.2-86.8-375.9-86.8-371.2z"/><path class="st3" d="M50.6-374.9l-33.5-8.2c-2.5-0.6-5.1-0.2-7.3,1.1l0,0c-5.3,3.2-5.3,10.9,0,14.1l0,0c2.2,1.3,4.8,1.7,7.3,1.1  L50.6-374.9z"/><path class="st3" d="M58.2-374.9l33.5-8.2c2.5-0.6,5.1-0.2,7.3,1.1l0,0c5.3,3.2,5.3,10.9,0,14.1l0,0c-2.2,1.3-4.8,1.7-7.3,1.1  L58.2-374.9z"/><polyline class="st3" points="234.3,-386.6 203.7,-399.3 173,-386.6 142.3,-399.3 "/><polyline class="st3" points="142.3,-381.5 173,-368.7 203.7,-381.5 234.3,-368.7 "/><polyline class="st3" points="142.3,-363.6 173,-350.9 203.7,-363.6 234.3,-350.9 "/><polyline class="st3" points="234.3,-333 203.7,-345.8 173,-333 142.3,-345.8 "/><g><path d="M234.3-399.3v67.1h-92v-67.1H234.3 M239.3-404.3h-5h-92h-5v5v67.1v5h5h92h5v-5v-67.1V-404.3L239.3-404.3z"/></g><path class="st3" d="M381.3-369.1c-6.4,5.5-21.6,9.5-39.3,9.5s-32.9-3.9-39.3-9.5c3.3-0.9,5.7-3.2,5.7-5.8c0-2.7-2.4-4.9-5.7-5.8  c6.4-5.5,21.6-9.5,39.3-9.5s32.9,3.9,39.3,9.5c-3.3,0.9-5.7,3.2-5.7,5.8C375.6-372.2,377.9-370,381.3-369.1z"/><path class="st3" d="M308.4-374.9c0,2.7-2.4,4.9-5.7,5.8c-1,0.3-2.1,0.4-3.2,0.4c-4.9,0-8.9-2.8-8.9-6.3s4-6.3,8.9-6.3  c1.1,0,2.2,0.1,3.2,0.4C306-379.8,308.4-377.6,308.4-374.9z"/><path class="st3" d="M393.4-374.9c0,3.5-4,6.3-8.9,6.3c-1.1,0-2.2-0.2-3.2-0.4c-3.3-0.9-5.7-3.2-5.7-5.8c0-2.7,2.4-4.9,5.7-5.8  c1-0.3,2.1-0.4,3.2-0.4C389.4-381.2,393.4-378.4,393.4-374.9z"/><line class="st3" x1="316.9" y1="-374.9" x2="308.4" y2="-374.9"/><line class="st3" x1="290.6" y1="-374.9" x2="282.1" y2="-374.9"/><line class="st3" x1="401.9" y1="-374.9" x2="393.4" y2="-374.9"/><line class="st3" x1="375.6" y1="-374.9" x2="367.1" y2="-374.9"/><line class="st3" x1="299.5" y1="-363.6" x2="299.5" y2="-368.7"/><line class="st3" x1="299.5" y1="-381.2" x2="299.5" y2="-386.2"/><line class="st3" x1="282.1" y1="-386.2" x2="282.1" y2="-363.6"/><line class="st3" x1="384.5" y1="-381.2" x2="384.5" y2="-386.2"/><line class="st3" x1="384.5" y1="-368.7" x2="384.5" y2="-363.6"/><line class="st3" x1="401.9" y1="-386.2" x2="401.9" y2="-363.6"/><g><rect x="444.6" y="-411.9" class="st3" width="82" height="82"/><line class="st3" x1="471.3" y1="-411.9" x2="471.3" y2="-384.8"/><line class="st3" x1="471.3" y1="-356.9" x2="471.3" y2="-329.9"/><line class="st3" x1="500" y1="-411.9" x2="500" y2="-384.8"/><line class="st3" x1="500" y1="-356.9" x2="500" y2="-329.9"/></g><rect x="572.3" y="-392.2" class="st3" width="99.3" height="11.8"/><rect x="560.5" y="-392.1" class="st3" width="11.8" height="47"/><rect x="671.6" y="-392.2" class="st3" width="11.8" height="47"/><rect x="572.3" y="-380.4" class="st3" width="99.3" height="11.8"/><rect x="572.3" y="-368.7" class="st3" width="99.3" height="11.8"/><rect x="572.3" y="-356.9" class="st3" width="99.3" height="11.8"/><rect x="728.5" y="-415.5" class="st2" width="82" height="82"/><polyline class="st6" points="728.5,-333.5 810.5,-349.6 728.5,-365.6 810.5,-384.2 728.5,-397.7 810.5,-415.5 "/><rect x="850.7" y="-394.4" class="st2" width="97" height="44"/><line class="st4" x1="860" y1="-386.8" x2="860" y2="-381.4"/><line class="st4" x1="872.5" y1="-384.1" x2="867.2" y2="-384.1"/><line class="st4" x1="879.6" y1="-386.8" x2="879.6" y2="-381.4"/><line class="st4" x1="892.1" y1="-384.1" x2="886.8" y2="-384.1"/><line class="st4" x1="899.2" y1="-386.8" x2="899.2" y2="-381.4"/><line class="st4" x1="911.7" y1="-384.1" x2="906.4" y2="-384.1"/><line class="st4" x1="918.8" y1="-386.8" x2="918.8" y2="-381.4"/><line class="st4" x1="931.3" y1="-384.1" x2="925.9" y2="-384.1"/><line class="st4" x1="938.4" y1="-386.8" x2="938.4" y2="-381.4"/><line class="st4" x1="862.7" y1="-372.4" x2="857.4" y2="-372.4"/><line class="st4" x1="869.8" y1="-375.1" x2="869.8" y2="-369.7"/><line class="st4" x1="882.3" y1="-372.4" x2="877" y2="-372.4"/><line class="st4" x1="889.4" y1="-375.1" x2="889.4" y2="-369.7"/><line class="st4" x1="901.9" y1="-372.4" x2="896.6" y2="-372.4"/><line class="st4" x1="909" y1="-375.1" x2="909" y2="-369.7"/><line class="st4" x1="921.5" y1="-372.4" x2="916.1" y2="-372.4"/><line class="st4" x1="928.6" y1="-375.1" x2="928.6" y2="-369.7"/><line class="st4" x1="941.1" y1="-372.4" x2="935.7" y2="-372.4"/><line class="st4" x1="860" y1="-363.4" x2="860" y2="-358"/><line class="st4" x1="872.5" y1="-360.7" x2="867.2" y2="-360.7"/><line class="st4" x1="879.6" y1="-363.4" x2="879.6" y2="-358"/><line class="st4" x1="892.1" y1="-360.7" x2="886.8" y2="-360.7"/><line class="st4" x1="899.2" y1="-363.4" x2="899.2" y2="-358"/><line class="st4" x1="911.7" y1="-360.7" x2="906.4" y2="-360.7"/><line class="st4" x1="918.8" y1="-363.4" x2="918.8" y2="-358"/><line class="st4" x1="931.3" y1="-360.7" x2="925.9" y2="-360.7"/><line class="st4" x1="938.4" y1="-363.4" x2="938.4" y2="-358"/><g><path d="M174.2,110.9c0.7-4.9,1-9.8,0.7-14.8c-0.2-4.9-1-9.6-2.1-14.4c-1.2-4.7-2.7-9.2-4.8-13.6c-2-4.4-4.4-8.5-7.3-12.3   c-2.8-3.9-6.1-7.5-9.6-10.8c-3.6-3.3-7.6-6.4-11.7-9c-8.6-5.3-18.5-8.9-28.4-10.3c-4.9-0.7-9.9-0.9-14.8-0.7   c-4.9,0.2-9.6,1-14.4,2.1c-4.7,1.2-9.2,2.8-13.6,4.8c-4.4,2-8.5,4.4-12.3,7.3c-3.9,2.8-7.5,6.1-10.8,9.6c-3.3,3.6-6.4,7.6-9,11.7   c-2.6,4.3-4.8,8.9-6.6,13.7c-1.7,4.8-3,9.8-3.8,14.7c-0.7,4.9-0.9,9.9-0.7,14.8s1,9.6,2.1,14.4c1.2,4.7,2.7,9.2,4.8,13.6   c2,4.4,4.4,8.5,7.3,12.3c2.8,3.9,6.1,7.5,9.6,10.8c3.6,3.3,7.6,6.4,11.7,9c4.3,2.6,8.9,4.8,13.7,6.6c4.8,1.7,9.8,3,14.7,3.8   c4.9,0.7,9.8,1,14.8,0.7c4.9-0.2,9.6-1,14.4-2.1c4.7-1.2,9.2-2.7,13.6-4.8c4.4-2,8.5-4.4,12.3-7.3c3.9-2.8,7.5-6.1,10.9-9.7   c3.3-3.6,6.4-7.6,9-11.7c2.6-4.3,4.8-8.9,6.6-13.7C172.2,120.9,173.5,115.9,174.2,110.9z M145.8,138.6c1.3-1.5,2.5-3.1,3.6-4.7   l8,4.9c-1.4,2.1-3,4.2-4.7,6.3L145.8,138.6z M42.7,117.2c0.5,1.8,1.2,3.6,1.9,5.4l-8.5,3.9c-0.9-2.4-1.8-4.7-2.5-7.1L42.7,117.2z    M47.1,127.9c0.9,1.7,1.9,3.3,2.9,4.9l-7.6,5.6c-1.4-2.1-2.7-4.3-3.8-6.5L47.1,127.9z M53.4,137.5c1.3,1.5,2.5,2.9,3.8,4.4   l-6.3,6.9c-1.8-1.8-3.4-3.7-5.1-5.7L53.4,137.5z M61.4,145.8c1.5,1.3,3.1,2.5,4.7,3.6l-4.9,8c-2.1-1.4-4.2-3-6.3-4.7L61.4,145.8z    M71.1,152.4c1.9,1,3.8,1.9,5.7,2.7l-3.2,8.8c-2.6-1.1-5-2.3-7.4-3.6L71.1,152.4z M82.3,157.2c2,0.6,4,1.2,6.1,1.6l-1.4,9.3   c-2.7-0.5-5.4-1.2-8-2.1C79.1,166,82.3,157.2,82.3,157.2z M94.2,159.6c2,0.2,4,0.3,6,0.3l0.4,9.3c-2.6,0-5.3-0.1-7.8-0.4   L94.2,159.6z M105.9,159.6c1.9-0.2,3.8-0.5,5.8-0.9l2.3,9.1c-2.5,0.5-5,0.9-7.5,1.1L105.9,159.6z M117.2,157.3   c1.8-0.5,3.6-1.2,5.4-1.9l3.9,8.5c-2.4,0.9-4.7,1.8-7.1,2.5L117.2,157.3z M122.8,149c-3.2,1.5-6.5,2.6-9.8,3.5   c-3.4,0.9-6.9,1.4-10.4,1.6c-3.5,0.2-7.1,0-10.6-0.6c-7.3-1.1-14.2-3.6-20.5-7.5c-3-1.9-5.9-4.1-8.5-6.4c-2.6-2.3-4.9-5-6.9-7.8   c-2.1-2.8-3.9-5.8-5.3-8.9c-1.5-3.2-2.6-6.5-3.5-9.8c-0.9-3.4-1.4-6.9-1.6-10.4c-0.2-3.5,0-7.1,0.6-10.6c0.6-3.6,1.5-7.2,2.7-10.6   c1.2-3.4,2.9-6.7,4.8-9.9c1.9-3,4.1-5.9,6.4-8.5c2.3-2.6,5-4.9,7.8-6.9c2.8-2.1,5.8-3.9,8.9-5.3c3.2-1.5,6.4-2.7,9.8-3.5   c3.4-0.9,6.9-1.4,10.4-1.6c3.5-0.2,7.1,0,10.6,0.6c3.6,0.6,7.2,1.5,10.6,2.7c3.4,1.2,6.7,2.9,9.9,4.8c3,1.9,5.9,4.1,8.5,6.4   c2.6,2.3,4.9,5,6.9,7.8c2.1,2.8,3.9,5.8,5.3,8.9c1.5,3.2,2.7,6.4,3.5,9.8c0.9,3.4,1.4,6.9,1.6,10.4c0.2,3.5,0,7.1-0.6,10.6   c-0.6,3.6-1.5,7.2-2.7,10.6c-1.2,3.4-2.9,6.7-4.8,9.9c-1.9,3-4.1,5.9-6.4,8.5c-2.3,2.6-5,4.9-7.8,6.9   C129,145.8,126,147.6,122.8,149z M30.8,100.7c0-2.6,0.1-5.3,0.4-7.8l9.3,1.4c-0.2,2-0.3,4-0.3,6L30.8,100.7z M54.2,61.4   c-1.3,1.5-2.5,3.1-3.6,4.7l-8-4.9c1.4-2.1,3-4.2,4.7-6.3L54.2,61.4z M47.6,71.1c-1,1.9-1.9,3.8-2.7,5.7l-8.8-3.2   c1.1-2.6,2.3-5,3.6-7.4L47.6,71.1z M42.8,82.3c-0.6,2-1.2,4-1.6,6.1L31.9,87c0.5-2.7,1.2-5.4,2.1-8C34,79.1,42.8,82.3,42.8,82.3z    M157.3,82.8c-0.5-1.8-1.2-3.6-1.9-5.4l8.5-3.9c0.9,2.4,1.8,4.7,2.5,7.1L157.3,82.8z M152.9,72.1c-0.9-1.7-1.9-3.3-2.9-4.9l7.6-5.5   c1.4,2.1,2.7,4.3,3.8,6.5L152.9,72.1z M146.6,62.5c-1.3-1.5-2.5-2.9-3.8-4.4l6.3-6.9c1.8,1.8,3.4,3.7,5.1,5.7L146.6,62.5z    M138.6,54.2c-1.5-1.3-3.1-2.5-4.7-3.6l4.9-8c2.1,1.4,4.2,3,6.3,4.7L138.6,54.2z M128.9,47.5c-1.9-1-3.8-1.9-5.7-2.7l3.2-8.8   c2.6,1.1,5,2.3,7.4,3.6L128.9,47.5z M117.7,42.8c-2-0.6-4-1.2-6.1-1.6l1.4-9.3c2.7,0.5,5.4,1.2,8,2.1   C120.9,34,117.7,42.8,117.7,42.8z M105.8,40.4c-2-0.2-4-0.3-6-0.3l-0.4-9.3c2.6,0,5.3,0.1,7.8,0.4L105.8,40.4z M94.1,40.4   c-1.9,0.2-3.8,0.5-5.8,0.9l-2.3-9.1c2.5-0.5,5-0.9,7.5-1.1L94.1,40.4z M82.8,42.7c-1.8,0.5-3.6,1.2-5.4,1.9l-4-8.5   c2.4-0.9,4.7-1.8,7.1-2.5L82.8,42.7z M169.3,99.4c0,2.6-0.1,5.3-0.4,7.8l-9.3-1.4c0.2-2,0.3-4,0.3-6L169.3,99.4z M152.4,128.9   c1-1.9,1.9-3.8,2.7-5.7l8.8,3.2c-1.1,2.6-2.3,5-3.6,7.4L152.4,128.9z M157.2,117.7c0.6-2,1.2-4,1.6-6.1l9.3,1.4   c-0.5,2.7-1.2,5.4-2.1,8C166,120.9,157.2,117.7,157.2,117.7z M168.9,93.6l-9.3,0.4c-0.2-1.9-0.5-3.8-0.9-5.8l9.1-2.3   C168.3,88.6,168.7,91.1,168.9,93.6z M68.2,38.5l3.9,8.5c-1.7,0.9-3.3,1.9-4.9,2.9l-5.5-7.6C63.8,41,66,39.7,68.2,38.5z M57,45.7   l5.5,7.6c-1.5,1.3-2.9,2.5-4.4,3.8l-6.9-6.3C53.1,49,55,47.3,57,45.7z M31.1,106.4l9.3-0.4c0.2,1.9,0.5,3.8,0.9,5.8l-9.1,2.3   C31.7,111.4,31.3,108.9,31.1,106.4z M131.8,161.5l-3.9-8.5c1.7-0.9,3.3-1.9,4.9-2.9l5.5,7.6C136.2,159,134,160.3,131.8,161.5z    M143,154.3l-5.5-7.6c0.3-0.2,0.6-0.5,0.9-0.7c1.2-0.9,2.3-2,3.5-3.1l6.9,6.3C146.9,151,145,152.7,143,154.3z"/><path d="M121.8,112.7c-0.7-2.3-1.8-4.3-3.2-6.1c-1-1.3-2.4-2.6-3.8-3.7c1.3-0.2,2.7-0.4,3.9-0.7c2-0.5,3.7-1.5,5.2-2.8   c1.4-1.3,2.6-3,3.3-5.1c0.9-2.4,1-4.7,0.3-6.9c-0.6-2-1.8-3.9-3.2-5.5c-1.5-1.6-3.3-3-5.2-4.1c-1.2-0.6-2.3-1.3-3.6-1.8l3.8-10.4   l-6.1-2.2l-3.8,10.4l-6.1-2.2l3.8-10.4l-6.1-2.2l-3.8,10.4l-12.7-4.6L82.1,71l1.8,0.8c0.6,0.2,1.2,0.7,2.2,1.1   c0.8,0.5,1.5,1,2.1,1.5c0.5,0.4,0.6,0.6,0.6,0.7c0.1,0.4-0.1,0.7-0.2,1.2l-12.7,34.8c-0.1,0.4-0.4,0.7-0.5,0.9c0,0.1-0.3,0.2-1,0.2   c-0.2,0-0.8-0.1-2.3-0.4c-1.3-0.4-2.1-0.6-2.8-0.7l-1.9-0.6l-2.3,6.4l13.1,4.8l-3.8,10.5l6.1,2.2l3.8-10.4l6.1,2.2l-3.8,10.4   l6.1,2.2l3.8-10.5c1.9,0.6,3.8,1,5.8,1.1c2.6,0.3,5.2,0.2,7.6-0.2c2.5-0.5,4.9-1.4,6.9-2.8c2.1-1.5,3.6-3.6,4.6-6.3   C122.3,117.6,122.5,115.1,121.8,112.7z M112.8,90.9c-1.5,4-6,6.1-10,4.7L95.5,93l5.3-14.6l7.2,2.6   C112.1,82.5,114.2,86.9,112.8,90.9z M95.6,120.4l-8.8-3.2L93,99.8l8.8,3.2c4.8,1.7,7.2,7,5.5,11.8   C105.6,119.6,100.3,122.2,95.6,120.4z"/></g></svg>