<?xml version="1.0" encoding="UTF-8"?>
<svg width="215px" height="70px" viewBox="0 0 215 70" version="1.1" xmlns="http://www.w3.org/2000/svg" xmlns:xlink="http://www.w3.org/1999/xlink">
    <!-- Generator: Sketch 48.2 (47327) - http://www.bohemiancoding.com/sketch -->
    <title>logo</title>
    <desc>Created with Sketch.</desc>
    <defs></defs>
    <g id="Page-1" stroke="none" stroke-width="1" fill="none" fill-rule="evenodd">
        <g id="logo">
            <text id="BiXBiT" fill="#201600" font-family="ProximaNova-Regular, Proxima Nova" font-size="40.19" font-weight="normal">
                <tspan x="98.93" y="48.6">BiXBiT</tspan>
            </text>
            <path d="M60.1,0 L20.1,0 L0,34.68 L20,69.35 L60.1,69.35 L80.1,34.68 L60.1,0 Z M43.81,41.22 L36.26,41.22 L32.48,34.68 L36.26,28.14 L43.81,28.14 L47.59,34.68 L43.81,41.22 Z M5.51,34.68 L22.77,4.78 L33.89,24.02 L32.7,26.08 L28.92,32.62 L27.73,34.68 L5.51,34.68 Z M22.77,64.58 L33.89,45.33 L46.19,45.33 L57.3,64.58 L22.77,64.58 Z M52.34,34.68 L51.15,32.62 L47.37,26.08 L46.18,24.02 L57.3,4.77 L74.56,34.67 L52.34,34.68 Z" id="Shape" fill="#FF0087" fill-rule="nonzero"></path>
        </g>
    </g>
</svg>